<?xml version="1.0" encoding="utf-8"?>
<!-- Generator: Adobe Illustrator 22.0.1, SVG Export Plug-In . SVG Version: 6.00 Build 0)  -->
<svg version="1.1" id="Calque_1" xmlns="http://www.w3.org/2000/svg" xmlns:xlink="http://www.w3.org/1999/xlink" x="0px" y="0px"
	 viewBox="0 0 48.7 43.8" style="enable-background:new 0 0 48.7 43.8;" xml:space="preserve">
<title>isotype_black</title>
<g id="Calque_2_1_">
	<g id="Calque_1-2">
		<path d="M42.9,6.5L5.8,0C2.6,0,0,2.6,0,5.8v32.1c0,3.2,2.6,5.8,5.8,5.8l37-5.7c3.2,0,5.8-2.6,5.8-5.8V12.3
			C48.7,9.1,44.9,6.8,42.9,6.5z M45.8,29.8c0,2.5-2,4.5-4.5,4.5l0,0l-26.1,3.6c-2.5,0-4.5-2-4.5-4.5V10.3c0-2.5,2-4.5,4.5-4.5
			L41.3,10c1.6,0.3,4.5,2,4.5,4.5V29.8z"/>
		<path d="M28.1,29.5L39.5,23c0.6-0.3,0.8-1.1,0.4-1.7c-0.1-0.2-0.3-0.3-0.4-0.4l-11.4-6.6c-0.6-0.3-1.3-0.1-1.7,0.4
			c-0.1,0.2-0.2,0.4-0.2,0.6v13.2c0,0.7,0.6,1.2,1.2,1.2C27.7,29.6,27.9,29.6,28.1,29.5z"/>
	</g>
</g>
</svg>
